<?xml version="1.0" encoding="utf-8"?>
<!-- Generator: Adobe Illustrator 15.0.2, SVG Export Plug-In . SVG Version: 6.00 Build 0)  -->
<!DOCTYPE svg PUBLIC "-//W3C//DTD SVG 1.1//EN" "http://www.w3.org/Graphics/SVG/1.1/DTD/svg11.dtd">
<svg version="1.1" id="Layer_1" xmlns="http://www.w3.org/2000/svg" xmlns:xlink="http://www.w3.org/1999/xlink" x="0px" y="0px"
	 width="32px" height="32px" viewBox="0 0 32 32" enable-background="new 0 0 32 32" xml:space="preserve">
<path fill="#FFFFFF" d="M26.3,18.4c-0.4-0.4-1.4-0.6-2.8-0.7c-1,0-2.1,0.1-3.4,0.2c-0.6-0.3-1.1-0.7-1.6-1.1
	c-1.2-1.1-2.2-2.7-2.8-4.4c0-0.2,0.1-0.3,0.1-0.4c0,0,0.7-3.8,0.5-5.1c0-0.2,0-0.2-0.1-0.4l-0.1-0.2C16,6,15.6,5.5,15.1,5.6l-0.3,0
	c-0.6,0-1.1,0.3-1.3,0.8c-0.4,1.5,0,3.8,0.8,6.7L14,13.6c-0.6,1.3-1.2,2.7-1.8,3.9l-0.1,0.2c-0.6,1.3-1.2,2.3-1.7,3.2l-0.5,0.3
	c0,0-1,0.5-1.2,0.6c-1.9,1.1-3.1,2.4-3.3,3.4c-0.1,0.3,0,0.7,0.3,0.9l0.5,0.3c0.2,0.1,0.5,0.2,0.7,0.2c1.3,0,2.9-1.6,5-5.3
	c2.4-0.8,5.2-1.5,7.6-1.8c1.9,1,4.1,1.8,5.6,1.8c0.3,0,0.5,0,0.7-0.1c0.3-0.1,0.5-0.2,0.7-0.4c0.3-0.4,0.3-1,0.3-1.6
	C26.6,18.8,26.5,18.6,26.3,18.4L26.3,18.4z M6.6,25.4c0.2-0.7,1.2-2,2.6-3.1c0.1-0.1,0.3-0.3,0.5-0.5C8.2,24.2,7.3,25.1,6.6,25.4z
	 M15,6.2c0.4,0,0.7,1.1,0.7,2.1c0,1-0.2,1.7-0.5,2.2c-0.2-0.8-0.4-2-0.4-2.8C14.8,7.8,14.8,6.2,15,6.2L15,6.2z M12.5,19.9
	c0.3-0.5,0.6-1.1,0.9-1.7c0.8-1.4,1.2-2.6,1.6-3.5c0.7,1.3,1.6,2.4,2.7,3.3c0.1,0.1,0.3,0.2,0.4,0.3C15.9,18.8,14.1,19.3,12.5,19.9
	L12.5,19.9L12.5,19.9z M25.9,19.8c-0.1,0.1-0.5,0.1-0.7,0.1c-0.8,0-1.7-0.4-3.1-0.9c0.5,0,1-0.1,1.4-0.1c0.8,0,1,0,1.8,0.2
	C26,19.3,26,19.7,25.9,19.8L25.9,19.8L25.9,19.8z"/>
<path fill="#FFFFFF" d="M28.7,7.2C28,6.2,27,5.1,26,4s-2.2-2-3.1-2.7C21.2,0.1,20.4,0,20,0H4.5C3.1,0,2,1.1,2,2.5v27
	C2,30.9,3.1,32,4.5,32h23c1.4,0,2.5-1.1,2.5-2.5V10C30,9.6,29.9,8.8,28.7,7.2L28.7,7.2z M24.5,5.5c1,1,1.7,1.8,2.3,2.5H22V3.2
	C22.7,3.7,23.6,4.5,24.5,5.5L24.5,5.5z M28,29.5c0,0.3-0.2,0.5-0.5,0.5h-23C4.2,30,4,29.8,4,29.5v-27C4,2.2,4.2,2,4.5,2
	C4.5,2,20,2,20,2v7c0,0.6,0.4,1,1,1h7V29.5z"/>
</svg>
