<svg xmlns="http://www.w3.org/2000/svg" viewBox="0 0 16 16">
  <path fill="#FFF" d="M13.15 9.2c-.2-.2-.7-.3-1.4-.351-.5 0-1.05.051-1.7.101-.3-.15-.55-.35-.8-.55-.6-.55-1.1-1.35-1.4-2.2 0-.1.05-.15.05-.2 0 0 .35-1.9.25-2.55 0-.1 0-.1-.05-.2l-.05-.1C8 3 7.8 2.75 7.55 2.8H7.4c-.3 0-.55.15-.65.4-.2.75 0 1.9.4 3.35L7 6.8c-.3.65-.6 1.35-.9 1.95l-.05.1c-.3.65-.6 1.15-.85 1.6l-.25.15s-.5.25-.6.301C3.4 11.45 2.8 12.1 2.7 12.6c-.05.15 0 .351.15.45l.25.15c.1.05.25.1.35.1.65 0 1.45-.8 2.5-2.649 1.2-.4 2.6-.75 3.8-.9.95.5 2.05.9 2.8.9.15 0 .25 0 .351-.051.149-.05.25-.1.35-.199.149-.201.149-.501.149-.801-.1-.2-.15-.3-.25-.4zM3.3 12.7c.1-.351.6-1 1.3-1.55l.25-.25c-.75 1.2-1.2 1.65-1.55 1.8zm4.2-9.6c.2 0 .35.55.35 1.05s-.1.85-.25 1.1c-.1-.4-.2-1-.2-1.4 0 .05 0-.75.1-.75zM6.25 9.95c.15-.25.3-.55.45-.85.4-.7.6-1.3.8-1.75.35.65.8 1.2 1.35 1.65.05.05.15.1.2.15-1.1.25-2 .5-2.8.8zm6.7-.05c-.05.05-.25.05-.35.05-.399 0-.85-.2-1.55-.45.25 0 .5-.05.7-.05.4 0 .5 0 .9.1.35.1.35.3.3.35z"/>
  <path fill="#FFF" d="M14.35 3.6C14 3.1 13.5 2.55 13 2S11.9 1 11.45.65C10.6.05 10.2 0 10 0H2.25C1.55 0 1 .55 1 1.25v13.5c0 .7.55 1.25 1.25 1.25h11.5c.7 0 1.25-.55 1.25-1.25V5c0-.2-.05-.6-.65-1.4zm-2.1-.85c.5.5.85.9 1.15 1.25H11V1.6c.35.25.8.65 1.25 1.15zm1.75 12c0 .15-.1.25-.25.25H2.25c-.15 0-.25-.1-.25-.25V1.25c0-.15.1-.25.25-.25H10v3.5c0 .3.2.5.5.5H14v9.75z"/>
</svg>
