<?xml version="1.0" encoding="utf-8"?>
<!-- Generator: Adobe Illustrator 15.0.2, SVG Export Plug-In . SVG Version: 6.00 Build 0)  -->
<!DOCTYPE svg PUBLIC "-//W3C//DTD SVG 1.1//EN" "http://www.w3.org/Graphics/SVG/1.1/DTD/svg11.dtd">
<svg version="1.1" id="Layer_1" xmlns="http://www.w3.org/2000/svg" xmlns:xlink="http://www.w3.org/1999/xlink" x="0px" y="0px"
	 width="16px" height="16px" viewBox="0 0 16 16" enable-background="new 0 0 16 16" xml:space="preserve">
<path fill="#FFFFFF" d="M13.15,9.2c-0.2-0.2-0.7-0.3-1.4-0.351c-0.5,0-1.05,0.051-1.7,0.101C9.75,8.8,9.5,8.6,9.25,8.4
	c-0.6-0.55-1.1-1.35-1.4-2.2C7.85,6.1,7.9,6.05,7.9,6c0,0,0.35-1.9,0.25-2.55c0-0.1,0-0.1-0.05-0.2l-0.05-0.1C8,3,7.8,2.75,7.55,2.8
	H7.4c-0.3,0-0.55,0.15-0.65,0.4c-0.2,0.75,0,1.9,0.4,3.35L7,6.8C6.7,7.45,6.4,8.15,6.1,8.75l-0.05,0.1C5.75,9.5,5.45,10,5.2,10.45
	L4.95,10.6c0,0-0.5,0.25-0.6,0.301C3.4,11.45,2.8,12.1,2.7,12.6c-0.05,0.15,0,0.351,0.15,0.45L3.1,13.2c0.1,0.05,0.25,0.1,0.35,0.1
	c0.65,0,1.45-0.8,2.5-2.649c1.2-0.4,2.6-0.75,3.8-0.9c0.95,0.5,2.05,0.9,2.8,0.9c0.15,0,0.25,0,0.351-0.051
	c0.149-0.05,0.25-0.1,0.35-0.199C13.4,10.2,13.4,9.9,13.4,9.6C13.3,9.4,13.25,9.3,13.15,9.2L13.15,9.2z M3.3,12.7
	c0.1-0.351,0.6-1,1.3-1.55C4.65,11.1,4.75,11,4.85,10.9C4.1,12.1,3.65,12.55,3.3,12.7z M7.5,3.1c0.2,0,0.35,0.55,0.35,1.05
	S7.75,5,7.6,5.25c-0.1-0.4-0.2-1-0.2-1.4C7.4,3.9,7.4,3.1,7.5,3.1L7.5,3.1z M6.25,9.95C6.4,9.7,6.55,9.4,6.7,9.1
	c0.4-0.7,0.6-1.3,0.8-1.75C7.85,8,8.3,8.55,8.85,9C8.9,9.05,9,9.1,9.05,9.15C7.95,9.4,7.05,9.65,6.25,9.95L6.25,9.95L6.25,9.95z
	 M12.95,9.9C12.9,9.95,12.7,9.95,12.6,9.95c-0.399,0-0.85-0.2-1.55-0.45c0.25,0,0.5-0.05,0.7-0.05c0.4,0,0.5,0,0.9,0.1
	C13,9.65,13,9.85,12.95,9.9L12.95,9.9L12.95,9.9z"/>
<path fill="#FFFFFF" d="M14.35,3.6C14,3.1,13.5,2.55,13,2s-1.1-1-1.55-1.35C10.6,0.05,10.2,0,10,0H2.25C1.55,0,1,0.55,1,1.25v13.5
	C1,15.45,1.55,16,2.25,16h11.5c0.7,0,1.25-0.55,1.25-1.25V5C15,4.8,14.95,4.4,14.35,3.6L14.35,3.6z M12.25,2.75
	c0.5,0.5,0.85,0.9,1.15,1.25H11V1.6C11.35,1.85,11.8,2.25,12.25,2.75L12.25,2.75z M14,14.75C14,14.9,13.9,15,13.75,15H2.25
	C2.1,15,2,14.9,2,14.75V1.25C2,1.1,2.1,1,2.25,1H10v3.5C10,4.8,10.2,5,10.5,5H14V14.75z"/>
</svg>
