<?xml version="1.0" encoding="utf-8"?>
<!-- Generator: Adobe Illustrator 15.0.2, SVG Export Plug-In . SVG Version: 6.00 Build 0)  -->
<!DOCTYPE svg PUBLIC "-//W3C//DTD SVG 1.1//EN" "http://www.w3.org/Graphics/SVG/1.1/DTD/svg11.dtd">
<svg version="1.1" id="github" xmlns="http://www.w3.org/2000/svg" xmlns:xlink="http://www.w3.org/1999/xlink" x="0px" y="0px"
	 width="16px" height="16px" viewBox="0 0 16 16" enable-background="new 0 0 16 16" xml:space="preserve">
<path fill="#FF2020" d="M8,0C3.6,0,0,3.6,0,8c0,3.55,2.3,6.55,5.45,7.6C5.85,15.649,6,15.45,6,15.2c0-0.2,0-0.801,0-1.5
	c-2.25,0.5-2.7-0.95-2.7-0.95c-0.35-0.9-0.9-1.15-0.9-1.15c-0.75-0.5,0.05-0.5,0.05-0.5c0.8,0.05,1.25,0.8,1.25,0.8
	c0.7,1.2,1.85,0.851,2.35,0.65c0.05-0.5,0.3-0.85,0.5-1.05c-1.8-0.2-3.65-0.9-3.65-3.95c0-0.85,0.3-1.6,0.8-2.15
	c-0.1-0.2-0.35-1,0.1-2.1c0,0,0.65-0.2,2.2,0.8c0.65-0.2,1.3-0.25,2-0.25s1.35,0.1,2,0.25c1.55-1,2.2-0.8,2.2-0.8
	c0.45,1.1,0.149,1.9,0.1,2.1c0.5,0.55,0.8,1.25,0.8,2.15c0,3.05-1.85,3.75-3.649,3.95C9.75,11.75,10,12.25,10,13
	c0,1.05,0,1.95,0,2.2c0,0.199,0.15,0.449,0.55,0.399C13.7,14.55,16,11.55,16,8C16,3.6,12.4,0,8,0z"/>
</svg>
