<?xml version="1.0" encoding="utf-8"?>
<!-- Generator: Adobe Illustrator 15.0.2, SVG Export Plug-In . SVG Version: 6.00 Build 0)  -->
<!DOCTYPE svg PUBLIC "-//W3C//DTD SVG 1.1//EN" "http://www.w3.org/Graphics/SVG/1.1/DTD/svg11.dtd">
<svg version="1.1" id="Layer_1" xmlns="http://www.w3.org/2000/svg" xmlns:xlink="http://www.w3.org/1999/xlink" x="0px" y="0px"
	 width="32px" height="32px" viewBox="0 0 32 32" enable-background="new 0 0 32 32" xml:space="preserve">
<path fill="#FF2020" d="M26.6,0H5.4C2.4,0,0,2.4,0,5.4v21.2c0,3,2.4,5.4,5.4,5.4h21.2c3,0,5.4-2.4,5.4-5.4V5.4C32,2.4,29.6,0,26.6,0
	z M12,26H8V12h4V26z M10,10c-1.1,0-2-0.9-2-2s0.9-2,2-2s2,0.9,2,2S11.1,10,10,10z M26,26h-4v-8c0-1.1-0.9-2-2-2s-2,0.9-2,2v8h-4V12
	h4v2.5c0.8-1.1,2.1-2.5,3.5-2.5c2.5,0,4.5,2.2,4.5,5V26z"/>
</svg>
