<?xml version="1.0" encoding="utf-8"?>
<!-- Generator: Adobe Illustrator 15.0.2, SVG Export Plug-In . SVG Version: 6.00 Build 0)  -->
<!DOCTYPE svg PUBLIC "-//W3C//DTD SVG 1.1//EN" "http://www.w3.org/Graphics/SVG/1.1/DTD/svg11.dtd">
<svg version="1.1" id="Layer_1" xmlns="http://www.w3.org/2000/svg" xmlns:xlink="http://www.w3.org/1999/xlink" x="0px" y="0px"
	 width="16px" height="16px" viewBox="0 0 16 16" enable-background="new 0 0 16 16" xml:space="preserve">
<path fill="#FF2020" d="M13.3,0H2.7C1.2,0,0,1.2,0,2.7v10.6C0,14.8,1.2,16,2.7,16h10.6c1.5,0,2.7-1.2,2.7-2.7V2.7
	C16,1.2,14.8,0,13.3,0z M6,13H4V6h2V13z M5,5C4.45,5,4,4.55,4,4s0.45-1,1-1s1,0.45,1,1S5.55,5,5,5z M13,13h-2V9c0-0.55-0.45-1-1-1
	S9,8.45,9,9v4H7V6h2v1.25C9.4,6.7,10.05,6,10.75,6C12,6,13,7.1,13,8.5V13z"/>
</svg>
