<svg xmlns="http://www.w3.org/2000/svg" viewBox="0 0 24 24">
  <defs>
    <filter id="a" width="24" height="24" x="0" y="0" filterUnits="userSpaceOnUse">
      <feColorMatrix values="1 0 0 0 0 0 1 0 0 0 0 0 1 0 0 0 0 0 1 0"/>
    </filter>
  </defs>
  <mask id="b" width="24" height="24" x="0" y="0" maskUnits="userSpaceOnUse">
    <path fill="#FFF" d="M2.818 19.357h8.563V13.33c.001-1.444 1.172-2.615 2.616-2.616h6.513V6.746c0-.954-.774-1.727-1.728-1.727H15.18V3.753c-.001-1.47-1.193-2.661-2.663-2.663H9.083C7.612 1.092 6.42 2.283 6.42 3.753v1.262H2.818c-.954 0-1.728.774-1.728 1.728V17.63c0 .953.774 1.727 1.728 1.727zM8.667 3.753c0-.229.186-.414.416-.414h3.435c.229 0 .416.186.416.414v1.262H8.667V3.753zm14.242 9.58v8.157c0 .198-.079.387-.219.528-.14.141-.329.219-.528.219h-8.165c-.198 0-.387-.078-.528-.219-.141-.141-.219-.33-.219-.528v-8.157c0-.413.334-.747.746-.747h3.167v2.948h1.914v-2.948h3.087c.413.002.745.336.745.747z" filter="url(#a)"/>
  </mask>
  <path fill="#FF2020" d="M0 0h24v24H0V0z" mask="url(#b)"/>
</svg>
